<svg width="500" height="183" viewBox="0 0 500 183" fill="none" xmlns="http://www.w3.org/2000/svg">
<path d="M58.848 8.25604V75.264H45.408V46.752H16.704V75.264H3.26402V8.25604H16.704V35.808H45.408V8.25604H58.848ZM78.8925 15.744C76.5245 15.744 74.5405 15.008 72.9405 13.536C71.4045 12 70.6365 10.112 70.6365 7.87204C70.6365 5.63203 71.4045 3.77603 72.9405 2.30403C74.5405 0.768034 76.5245 3.43323e-05 78.8925 3.43323e-05C81.2605 3.43323e-05 83.2125 0.768034 84.7485 2.30403C86.3485 3.77603 87.1485 5.63203 87.1485 7.87204C87.1485 10.112 86.3485 12 84.7485 13.536C83.2125 15.008 81.2605 15.744 78.8925 15.744ZM85.5165 22.08V75.264H72.0765V22.08H85.5165ZM113.483 61.152L102.251 88.128H93.6113L99.8513 61.152H113.483ZM159.485 8.25604V75.264H146.045V8.25604H159.485ZM192.183 48.48C192.183 43.104 193.239 38.336 195.351 34.176C197.527 30.016 200.439 26.816 204.087 24.576C207.799 22.336 211.927 21.216 216.471 21.216C220.439 21.216 223.895 22.016 226.839 23.616C229.847 25.216 232.247 27.232 234.039 29.664V22.08H247.575V75.264H234.039V67.488C232.311 69.984 229.911 72.064 226.839 73.728C223.831 75.328 220.343 76.128 216.375 76.128C211.895 76.128 207.799 74.976 204.087 72.672C200.439 70.368 197.527 67.136 195.351 62.976C193.239 58.752 192.183 53.92 192.183 48.48ZM234.039 48.672C234.039 45.408 233.399 42.624 232.119 40.32C230.839 37.952 229.111 36.16 226.935 34.944C224.759 33.664 222.423 33.024 219.927 33.024C217.431 33.024 215.127 33.632 213.015 34.848C210.903 36.064 209.175 37.856 207.831 40.224C206.551 42.528 205.911 45.28 205.911 48.48C205.911 51.68 206.551 54.496 207.831 56.928C209.175 59.296 210.903 61.12 213.015 62.4C215.191 63.68 217.495 64.32 219.927 64.32C222.423 64.32 224.759 63.712 226.935 62.496C229.111 61.216 230.839 59.424 232.119 57.12C233.399 54.752 234.039 51.936 234.039 48.672ZM326.75 21.312C333.278 21.312 338.526 23.328 342.494 27.36C346.526 31.328 348.542 36.896 348.542 44.064V75.264H335.102V45.888C335.102 41.728 334.046 38.56 331.934 36.384C329.822 34.144 326.942 33.024 323.294 33.024C319.646 33.024 316.734 34.144 314.558 36.384C312.446 38.56 311.39 41.728 311.39 45.888V75.264H297.95V45.888C297.95 41.728 296.894 38.56 294.782 36.384C292.67 34.144 289.79 33.024 286.142 33.024C282.43 33.024 279.486 34.144 277.31 36.384C275.198 38.56 274.142 41.728 274.142 45.888V75.264H260.702V22.08H274.142V28.512C275.87 26.272 278.078 24.512 280.766 23.232C283.518 21.952 286.526 21.312 289.79 21.312C293.95 21.312 297.662 22.208 300.926 24C304.19 25.728 306.718 28.224 308.51 31.488C310.238 28.416 312.734 25.952 315.998 24.096C319.326 22.24 322.91 21.312 326.75 21.312ZM1.46627e-05 142.664C1.46627e-05 136.072 1.47201 130.184 4.41601 125C7.42402 119.752 11.488 115.688 16.608 112.808C21.792 109.864 27.584 108.392 33.984 108.392C41.472 108.392 48.032 110.312 53.664 114.152C59.296 117.992 63.232 123.304 65.472 130.088H50.016C48.48 126.888 46.304 124.488 43.488 122.888C40.736 121.288 37.536 120.488 33.888 120.488C29.984 120.488 26.496 121.416 23.424 123.272C20.416 125.064 18.048 127.624 16.32 130.952C14.656 134.28 13.824 138.184 13.824 142.664C13.824 147.08 14.656 150.984 16.32 154.376C18.048 157.704 20.416 160.296 23.424 162.152C26.496 163.944 29.984 164.84 33.888 164.84C37.536 164.84 40.736 164.04 43.488 162.44C46.304 160.776 48.48 158.344 50.016 155.144H65.472C63.232 161.992 59.296 167.336 53.664 171.176C48.096 174.952 41.536 176.84 33.984 176.84C27.584 176.84 21.792 175.4 16.608 172.52C11.488 169.576 7.42402 165.512 4.41601 160.328C1.47201 155.144 1.46627e-05 149.256 1.46627e-05 142.664ZM90.3915 131.336C92.1195 128.52 94.3595 126.312 97.1115 124.712C99.9275 123.112 103.128 122.312 106.712 122.312V136.424H103.16C98.9355 136.424 95.7355 137.416 93.5595 139.4C91.4475 141.384 90.3915 144.84 90.3915 149.768V176.264H76.9515V123.08H90.3915V131.336ZM122.58 116.744C120.212 116.744 118.228 116.008 116.628 114.536C115.092 113 114.324 111.112 114.324 108.872C114.324 106.632 115.092 104.776 116.628 103.304C118.228 101.768 120.212 101 122.58 101C124.948 101 126.9 101.768 128.436 103.304C130.036 104.776 130.836 106.632 130.836 108.872C130.836 111.112 130.036 113 128.436 114.536C126.9 116.008 124.948 116.744 122.58 116.744ZM129.204 123.08V176.264H115.764V123.08H129.204ZM162.835 177.128C158.483 177.128 154.579 176.36 151.123 174.824C147.667 173.224 144.915 171.08 142.867 168.392C140.883 165.704 139.795 162.728 139.603 159.464H153.139C153.395 161.512 154.387 163.208 156.115 164.552C157.907 165.896 160.115 166.568 162.739 166.568C165.299 166.568 167.283 166.056 168.691 165.032C170.163 164.008 170.899 162.696 170.899 161.096C170.899 159.368 170.003 158.088 168.211 157.256C166.483 156.36 163.699 155.4 159.859 154.376C155.891 153.416 152.627 152.424 150.067 151.4C147.571 150.376 145.395 148.808 143.539 146.696C141.747 144.584 140.851 141.736 140.851 138.152C140.851 135.208 141.683 132.52 143.347 130.088C145.075 127.656 147.507 125.736 150.643 124.328C153.843 122.92 157.587 122.216 161.875 122.216C168.211 122.216 173.267 123.816 177.043 127.016C180.819 130.152 182.899 134.408 183.283 139.784H170.419C170.227 137.672 169.331 136.008 167.731 134.792C166.195 133.512 164.115 132.872 161.491 132.872C159.059 132.872 157.171 133.32 155.827 134.216C154.547 135.112 153.907 136.36 153.907 137.96C153.907 139.752 154.803 141.128 156.595 142.088C158.387 142.984 161.171 143.912 164.947 144.872C168.787 145.832 171.955 146.824 174.451 147.848C176.947 148.872 179.091 150.472 180.883 152.648C182.739 154.76 183.699 157.576 183.763 161.096C183.763 164.168 182.899 166.92 181.171 169.352C179.507 171.784 177.075 173.704 173.875 175.112C170.739 176.456 167.059 177.128 162.835 177.128ZM210.443 134.12V159.848C210.443 161.64 210.859 162.952 211.691 163.784C212.587 164.552 214.059 164.936 216.107 164.936H222.347V176.264H213.899C202.571 176.264 196.907 170.76 196.907 159.752V134.12H190.571V123.08H196.907V109.928H210.443V123.08H222.347V134.12H210.443ZM238.83 116.744C236.462 116.744 234.478 116.008 232.878 114.536C231.342 113 230.574 111.112 230.574 108.872C230.574 106.632 231.342 104.776 232.878 103.304C234.478 101.768 236.462 101 238.83 101C241.198 101 243.15 101.768 244.686 103.304C246.286 104.776 247.086 106.632 247.086 108.872C247.086 111.112 246.286 113 244.686 114.536C243.15 116.008 241.198 116.744 238.83 116.744ZM245.454 123.08V176.264H232.014V123.08H245.454ZM255.277 149.48C255.277 144.104 256.333 139.336 258.445 135.176C260.621 131.016 263.533 127.816 267.181 125.576C270.893 123.336 275.021 122.216 279.565 122.216C283.533 122.216 286.989 123.016 289.933 124.616C292.941 126.216 295.341 128.232 297.133 130.664V123.08H310.669V176.264H297.133V168.488C295.405 170.984 293.005 173.064 289.933 174.728C286.925 176.328 283.437 177.128 279.469 177.128C274.989 177.128 270.893 175.976 267.181 173.672C263.533 171.368 260.621 168.136 258.445 163.976C256.333 159.752 255.277 154.92 255.277 149.48ZM297.133 149.672C297.133 146.408 296.493 143.624 295.213 141.32C293.933 138.952 292.205 137.16 290.029 135.944C287.853 134.664 285.517 134.024 283.021 134.024C280.525 134.024 278.221 134.632 276.109 135.848C273.997 137.064 272.269 138.856 270.925 141.224C269.645 143.528 269.005 146.28 269.005 149.48C269.005 152.68 269.645 155.496 270.925 157.928C272.269 160.296 273.997 162.12 276.109 163.4C278.285 164.68 280.589 165.32 283.021 165.32C285.517 165.32 287.853 164.712 290.029 163.496C292.205 162.216 293.933 160.424 295.213 158.12C296.493 155.752 297.133 152.936 297.133 149.672ZM353.267 122.312C359.603 122.312 364.723 124.328 368.627 128.36C372.531 132.328 374.483 137.896 374.483 145.064V176.264H361.043V146.888C361.043 142.664 359.987 139.432 357.875 137.192C355.763 134.888 352.883 133.736 349.235 133.736C345.523 133.736 342.579 134.888 340.403 137.192C338.291 139.432 337.235 142.664 337.235 146.888V176.264H323.795V123.08H337.235V129.704C339.027 127.4 341.299 125.608 344.051 124.328C346.867 122.984 349.939 122.312 353.267 122.312Z" fill="#1B1C37"/>
<path d="M403.515 182.984H499.515V86.984H403.515V182.984Z" fill="black"/>
</svg>
