<svg width="21" height="21" viewBox="0 0 21 21" fill="none" xmlns="http://www.w3.org/2000/svg">
<path d="M15.4523 3.88594C13.8938 3.93372 13.8942 6.17595 15.4523 6.22333C17.0109 6.17554 17.0104 3.93331 15.4523 3.88594ZM10.2534 5.23899C7.49111 5.23899 5.25195 7.48409 5.25195 10.2536C5.51547 16.9054 14.9922 16.9036 15.2546 10.2536C15.2548 7.48409 13.0155 5.23899 10.2534 5.23899ZM10.2534 13.5086C8.46047 13.5086 7.00694 12.0512 7.00694 10.2536C7.17797 5.93582 13.3296 5.93684 13.5001 10.2536C13.4999 12.0514 12.0463 13.5086 10.2534 13.5086Z" fill="url(#paint0_linear_16_5112)"/>
<path d="M19.9343 6.23791C19.8621 2.82001 17.6876 0.644218 14.2688 0.572648C13.4479 0.493491 7.0592 0.492056 6.23769 0.572648C2.81979 0.644833 0.644005 2.81939 0.572436 6.23811C0.493279 7.05777 0.491638 13.4486 0.572436 14.2693C0.636212 17.6761 2.83046 19.8709 6.23769 19.9345C7.05859 20.0145 13.4473 20.0145 14.2688 19.9345C15.3055 19.8871 16.0136 19.7225 16.6331 19.4817C18.8042 18.6145 19.865 16.6854 19.9343 14.2691C20.0135 13.4482 20.0149 7.05941 19.9343 6.23791ZM14.1889 18.1814C13.3811 18.2585 7.12605 18.2597 6.31767 18.1814C5.3682 18.1381 4.85245 17.9794 4.50916 17.8461C1.54611 16.4717 2.46482 13.6924 2.32517 9.87748C2.32824 8.99138 2.32332 7.20419 2.32537 6.31809C2.4437 3.67638 3.68785 2.45334 6.31767 2.32579C7.12646 2.24868 13.3799 2.24745 14.1889 2.32579C16.8314 2.44411 18.0532 3.68827 18.1812 6.31788C18.2334 6.94929 18.2714 10.3961 18.1812 12.1404C18.2786 15.4166 18.1293 17.9892 14.1889 18.1814Z" fill="url(#paint1_linear_16_5112)"/>
<defs>
<linearGradient id="paint0_linear_16_5112" x1="5.25195" y1="9.56385" x2="16.6211" y2="9.56385" gradientUnits="userSpaceOnUse">
<stop stop-color="#B224EF"/>
<stop offset="1" stop-color="#7579FF"/>
</linearGradient>
<linearGradient id="paint1_linear_16_5112" x1="0.512451" y1="10.2536" x2="19.9942" y2="10.2536" gradientUnits="userSpaceOnUse">
<stop stop-color="#B224EF"/>
<stop offset="1" stop-color="#7579FF"/>
</linearGradient>
</defs>
</svg>
