<svg width="21" height="21" viewBox="0 0 21 21" fill="none" xmlns="http://www.w3.org/2000/svg">
<g clip-path="url(#clip0_16_5118)">
<path d="M18.5545 0.515362C15.5582 0.506954 4.50684 0.521104 1.95249 0.515362C1.15764 0.515362 0.512695 1.14062 0.512695 1.91066V18.5994C0.512695 19.3697 1.15764 19.9943 1.95249 19.9943H18.5545C19.3498 19.9943 19.9943 19.3697 19.9943 18.5992V1.91066C19.9943 1.14062 19.3498 0.515362 18.5545 0.515362Z" fill="url(#paint0_linear_16_5118)"/>
<path d="M10.9616 16.8168C10.9616 16.8168 10.9616 11.9201 10.9616 11.9199C10.9331 11.0201 11.471 10.1803 12.5534 10.1426C13.6081 10.1426 14.0301 10.9467 14.0301 12.1256V16.8166H16.9449V11.7885C16.9449 9.0949 15.507 7.84151 13.589 7.84151C12.0165 7.84151 11.3258 8.72024 10.9421 9.31883L10.9616 8.0474H8.04677C8.0847 8.87014 8.04656 16.8168 8.04656 16.8168H10.9616ZM6.43307 13.014V8.0472H3.5178V16.8166H6.43328C6.43266 15.8958 6.4343 13.9218 6.43307 13.014ZM4.97605 6.8502C5.99238 6.8502 6.62522 6.17675 6.62522 5.33535C6.61681 3.30578 3.34329 3.32834 3.34595 5.33515C3.3437 6.18311 3.99397 6.86066 4.97605 6.8502Z" fill="white"/>
</g>
<defs>
<linearGradient id="paint0_linear_16_5118" x1="0.512695" y1="10.2535" x2="19.9943" y2="10.2535" gradientUnits="userSpaceOnUse">
<stop stop-color="#B224EF"/>
<stop offset="1" stop-color="#7579FF"/>
</linearGradient>
<clipPath id="clip0_16_5118">
<rect width="20.507" height="20.507" fill="white"/>
</clipPath>
</defs>
</svg>
