<svg width="674" height="793" viewBox="0 0 674 793" fill="none" xmlns="http://www.w3.org/2000/svg">
<g filter="url(#filter0_d_16_247)">
<rect x="135" y="171" width="323.948" height="443" rx="60" fill="url(#paint0_linear_16_247)" shape-rendering="crispEdges"/>
<path d="M196.234 475.4C196.234 472.928 196.786 470.72 197.89 468.776C199.018 466.808 200.542 465.284 202.462 464.204C204.406 463.1 206.578 462.548 208.978 462.548C211.786 462.548 214.246 463.268 216.358 464.708C218.47 466.148 219.946 468.14 220.786 470.684H214.99C214.414 469.484 213.598 468.584 212.542 467.984C211.51 467.384 210.31 467.084 208.942 467.084C207.478 467.084 206.17 467.432 205.018 468.128C203.89 468.8 203.002 469.76 202.354 471.008C201.73 472.256 201.418 473.72 201.418 475.4C201.418 477.056 201.73 478.52 202.354 479.792C203.002 481.04 203.89 482.012 205.018 482.708C206.17 483.38 207.478 483.716 208.942 483.716C210.31 483.716 211.51 483.416 212.542 482.816C213.598 482.192 214.414 481.28 214.99 480.08H220.786C219.946 482.648 218.47 484.652 216.358 486.092C214.27 487.508 211.81 488.216 208.978 488.216C206.578 488.216 204.406 487.676 202.462 486.596C200.542 485.492 199.018 483.968 197.89 482.024C196.786 480.08 196.234 477.872 196.234 475.4ZM233.947 488.324C232.027 488.324 230.299 487.904 228.763 487.064C227.227 486.2 226.015 484.988 225.127 483.428C224.263 481.868 223.831 480.068 223.831 478.028C223.831 475.988 224.275 474.188 225.163 472.628C226.075 471.068 227.311 469.868 228.871 469.028C230.431 468.164 232.171 467.732 234.091 467.732C236.011 467.732 237.751 468.164 239.311 469.028C240.871 469.868 242.095 471.068 242.983 472.628C243.895 474.188 244.351 475.988 244.351 478.028C244.351 480.068 243.883 481.868 242.947 483.428C242.035 484.988 240.787 486.2 239.203 487.064C237.643 487.904 235.891 488.324 233.947 488.324ZM233.947 483.932C234.859 483.932 235.711 483.716 236.503 483.284C237.319 482.828 237.967 482.156 238.447 481.268C238.927 480.38 239.167 479.3 239.167 478.028C239.167 476.132 238.663 474.68 237.655 473.672C236.671 472.64 235.459 472.124 234.019 472.124C232.579 472.124 231.367 472.64 230.383 473.672C229.423 474.68 228.943 476.132 228.943 478.028C228.943 479.924 229.411 481.388 230.347 482.42C231.307 483.428 232.507 483.932 233.947 483.932ZM253.088 461.36V488H248.048V461.36H253.088ZM266.923 488.324C265.003 488.324 263.275 487.904 261.739 487.064C260.203 486.2 258.991 484.988 258.103 483.428C257.239 481.868 256.807 480.068 256.807 478.028C256.807 475.988 257.251 474.188 258.139 472.628C259.051 471.068 260.287 469.868 261.847 469.028C263.407 468.164 265.147 467.732 267.067 467.732C268.987 467.732 270.727 468.164 272.287 469.028C273.847 469.868 275.071 471.068 275.959 472.628C276.871 474.188 277.327 475.988 277.327 478.028C277.327 480.068 276.859 481.868 275.923 483.428C275.011 484.988 273.763 486.2 272.179 487.064C270.619 487.904 268.867 488.324 266.923 488.324ZM266.923 483.932C267.835 483.932 268.687 483.716 269.479 483.284C270.295 482.828 270.943 482.156 271.423 481.268C271.903 480.38 272.143 479.3 272.143 478.028C272.143 476.132 271.639 474.68 270.631 473.672C269.647 472.64 268.435 472.124 266.995 472.124C265.555 472.124 264.343 472.64 263.359 473.672C262.399 474.68 261.919 476.132 261.919 478.028C261.919 479.924 262.387 481.388 263.323 482.42C264.283 483.428 265.483 483.932 266.923 483.932ZM305.792 467.768C308.24 467.768 310.208 468.524 311.696 470.036C313.208 471.524 313.964 473.612 313.964 476.3V488H308.924V476.984C308.924 475.424 308.528 474.236 307.736 473.42C306.944 472.58 305.864 472.16 304.496 472.16C303.128 472.16 302.036 472.58 301.22 473.42C300.428 474.236 300.032 475.424 300.032 476.984V488H294.992V476.984C294.992 475.424 294.596 474.236 293.804 473.42C293.012 472.58 291.932 472.16 290.564 472.16C289.172 472.16 288.068 472.58 287.252 473.42C286.46 474.236 286.064 475.424 286.064 476.984V488H281.024V468.056H286.064V470.468C286.712 469.628 287.54 468.968 288.548 468.488C289.58 468.008 290.708 467.768 291.932 467.768C293.492 467.768 294.884 468.104 296.108 468.776C297.332 469.424 298.28 470.36 298.952 471.584C299.6 470.432 300.536 469.508 301.76 468.812C303.008 468.116 304.352 467.768 305.792 467.768ZM323.787 470.972C324.435 470.012 325.323 469.232 326.451 468.632C327.603 468.032 328.911 467.732 330.375 467.732C332.079 467.732 333.615 468.152 334.983 468.992C336.375 469.832 337.467 471.032 338.259 472.592C339.075 474.128 339.483 475.916 339.483 477.956C339.483 479.996 339.075 481.808 338.259 483.392C337.467 484.952 336.375 486.164 334.983 487.028C333.615 487.892 332.079 488.324 330.375 488.324C328.887 488.324 327.579 488.036 326.451 487.46C325.347 486.86 324.459 486.092 323.787 485.156V488H318.747V461.36H323.787V470.972ZM334.335 477.956C334.335 476.756 334.083 475.724 333.579 474.86C333.099 473.972 332.451 473.3 331.635 472.844C330.843 472.388 329.979 472.16 329.043 472.16C328.131 472.16 327.267 472.4 326.451 472.88C325.659 473.336 325.011 474.008 324.507 474.896C324.027 475.784 323.787 476.828 323.787 478.028C323.787 479.228 324.027 480.272 324.507 481.16C325.011 482.048 325.659 482.732 326.451 483.212C327.267 483.668 328.131 483.896 329.043 483.896C329.979 483.896 330.843 483.656 331.635 483.176C332.451 482.696 333.099 482.012 333.579 481.124C334.083 480.236 334.335 479.18 334.335 477.956ZM345.702 465.68C344.814 465.68 344.07 465.404 343.47 464.852C342.894 464.276 342.606 463.568 342.606 462.728C342.606 461.888 342.894 461.192 343.47 460.64C344.07 460.064 344.814 459.776 345.702 459.776C346.59 459.776 347.322 460.064 347.898 460.64C348.498 461.192 348.798 461.888 348.798 462.728C348.798 463.568 348.498 464.276 347.898 464.852C347.322 465.404 346.59 465.68 345.702 465.68ZM348.186 468.056V488H343.146V468.056H348.186ZM351.869 477.956C351.869 475.94 352.265 474.152 353.057 472.592C353.873 471.032 354.965 469.832 356.333 468.992C357.725 468.152 359.273 467.732 360.977 467.732C362.465 467.732 363.761 468.032 364.865 468.632C365.993 469.232 366.893 469.988 367.565 470.9V468.056H372.641V488H367.565V485.084C366.917 486.02 366.017 486.8 364.865 487.424C363.737 488.024 362.429 488.324 360.941 488.324C359.261 488.324 357.725 487.892 356.333 487.028C354.965 486.164 353.873 484.952 353.057 483.392C352.265 481.808 351.869 479.996 351.869 477.956ZM367.565 478.028C367.565 476.804 367.325 475.76 366.845 474.896C366.365 474.008 365.717 473.336 364.901 472.88C364.085 472.4 363.209 472.16 362.273 472.16C361.337 472.16 360.473 472.388 359.681 472.844C358.889 473.3 358.241 473.972 357.737 474.86C357.257 475.724 357.017 476.756 357.017 477.956C357.017 479.156 357.257 480.212 357.737 481.124C358.241 482.012 358.889 482.696 359.681 483.176C360.497 483.656 361.361 483.896 362.273 483.896C363.209 483.896 364.085 483.668 364.901 483.212C365.717 482.732 366.365 482.06 366.845 481.196C367.325 480.308 367.565 479.252 367.565 478.028ZM388.616 467.768C390.992 467.768 392.912 468.524 394.376 470.036C395.84 471.524 396.572 473.612 396.572 476.3V488H391.532V476.984C391.532 475.4 391.136 474.188 390.344 473.348C389.552 472.484 388.472 472.052 387.104 472.052C385.712 472.052 384.608 472.484 383.792 473.348C383 474.188 382.604 475.4 382.604 476.984V488H377.564V468.056H382.604V470.54C383.276 469.676 384.128 469.004 385.16 468.524C386.216 468.02 387.368 467.768 388.616 467.768Z" fill="#EDEEFF"/>
<path d="M219.702 388.456V378.28H237.43V425H226.038V388.456H219.702ZM244.917 401C244.917 393.661 246.325 387.88 249.141 383.656C251.999 379.432 256.586 377.32 262.901 377.32C269.215 377.32 273.781 379.432 276.597 383.656C279.455 387.88 280.885 393.661 280.885 401C280.885 408.424 279.455 414.248 276.597 418.472C273.781 422.696 269.215 424.808 262.901 424.808C256.586 424.808 251.999 422.696 249.141 418.472C246.325 414.248 244.917 408.424 244.917 401ZM270.133 401C270.133 396.691 269.663 393.384 268.725 391.08C267.786 388.733 265.845 387.56 262.901 387.56C259.957 387.56 258.015 388.733 257.077 391.08C256.138 393.384 255.669 396.691 255.669 401C255.669 403.901 255.839 406.312 256.181 408.232C256.522 410.109 257.205 411.645 258.229 412.84C259.295 413.992 260.853 414.568 262.901 414.568C264.949 414.568 266.485 413.992 267.509 412.84C268.575 411.645 269.279 410.109 269.621 408.232C269.962 406.312 270.133 403.901 270.133 401ZM286.667 401C286.667 393.661 288.075 387.88 290.891 383.656C293.749 379.432 298.336 377.32 304.651 377.32C310.965 377.32 315.531 379.432 318.347 383.656C321.205 387.88 322.635 393.661 322.635 401C322.635 408.424 321.205 414.248 318.347 418.472C315.531 422.696 310.965 424.808 304.651 424.808C298.336 424.808 293.749 422.696 290.891 418.472C288.075 414.248 286.667 408.424 286.667 401ZM311.883 401C311.883 396.691 311.413 393.384 310.475 391.08C309.536 388.733 307.595 387.56 304.651 387.56C301.707 387.56 299.765 388.733 298.827 391.08C297.888 393.384 297.419 396.691 297.419 401C297.419 403.901 297.589 406.312 297.931 408.232C298.272 410.109 298.955 411.645 299.979 412.84C301.045 413.992 302.603 414.568 304.651 414.568C306.699 414.568 308.235 413.992 309.259 412.84C310.325 411.645 311.029 410.109 311.371 408.232C311.712 406.312 311.883 403.901 311.883 401ZM327.521 390.056C327.521 386.6 328.502 383.933 330.465 382.056C332.47 380.179 335.051 379.24 338.209 379.24C341.366 379.24 343.926 380.179 345.889 382.056C347.851 383.933 348.833 386.6 348.833 390.056C348.833 393.512 347.851 396.179 345.889 398.056C343.926 399.933 341.366 400.872 338.209 400.872C335.051 400.872 332.47 399.933 330.465 398.056C328.502 396.179 327.521 393.512 327.521 390.056ZM370.977 379.944L346.337 425H335.777L360.417 379.944H370.977ZM338.145 385.64C336.097 385.64 335.073 387.112 335.073 390.056C335.073 392.957 336.097 394.408 338.145 394.408C339.126 394.408 339.894 394.045 340.449 393.32C341.003 392.595 341.281 391.507 341.281 390.056C341.281 387.112 340.235 385.64 338.145 385.64ZM357.985 414.888C357.985 411.432 358.966 408.765 360.929 406.888C362.891 405.011 365.451 404.072 368.609 404.072C371.766 404.072 374.326 405.011 376.289 406.888C378.251 408.765 379.233 411.432 379.233 414.888C379.233 418.344 378.251 421.011 376.289 422.888C374.326 424.765 371.766 425.704 368.609 425.704C365.451 425.704 362.891 424.765 360.929 422.888C358.966 421.011 357.985 418.344 357.985 414.888ZM368.545 410.472C367.563 410.472 366.795 410.835 366.241 411.56C365.729 412.285 365.473 413.395 365.473 414.888C365.473 417.789 366.497 419.24 368.545 419.24C369.526 419.24 370.294 418.877 370.849 418.152C371.403 417.427 371.681 416.339 371.681 414.888C371.681 413.437 371.403 412.349 370.849 411.624C370.294 410.856 369.526 410.472 368.545 410.472Z" fill="white"/>
<path opacity="0.4" d="M323.641 246H270.307C262.93 246 256.974 251.911 256.974 259.2V307.689C256.974 314.978 262.93 320.889 270.307 320.889H273.685C277.241 320.889 280.619 322.267 283.107 324.756L290.707 332.267C294.174 335.689 299.819 335.689 303.285 332.267L310.885 324.756C313.374 322.267 316.796 320.889 320.307 320.889H323.641C331.019 320.889 336.974 314.978 336.974 307.689V259.2C336.974 251.911 331.019 246 323.641 246Z" fill="url(#paint1_linear_16_247)"/>
<path d="M342.453 321.811L334.341 323.728C332.522 324.171 331.096 325.547 330.702 327.367L328.982 334.594C328.047 338.527 323.032 339.757 320.427 336.659L305.726 319.746C304.546 318.369 305.185 316.206 306.955 315.763C315.657 313.649 323.475 308.782 329.227 301.849C330.162 300.718 331.833 300.571 332.866 301.603L343.781 312.518C347.517 316.255 346.19 320.926 342.453 321.811Z" fill="url(#paint2_linear_16_247)"/>
<path d="M251.249 321.811L259.362 323.728C261.181 324.171 262.607 325.547 263 327.367L264.721 334.594C265.655 338.527 270.67 339.757 273.276 336.659L287.977 319.746C289.157 318.369 288.518 316.206 286.748 315.763C278.045 313.649 270.228 308.782 264.475 301.849C263.541 300.718 261.869 300.571 260.837 301.603L249.922 312.518C246.185 316.255 247.513 320.926 251.249 321.811Z" fill="url(#paint3_linear_16_247)"/>
<path d="M296.974 240.833C277.947 240.833 262.557 256.223 262.557 275.25C262.557 282.379 264.672 288.918 268.31 294.376C273.62 302.243 282.027 307.798 291.812 309.224C293.483 309.519 295.204 309.667 296.974 309.667C298.744 309.667 300.465 309.519 302.137 309.224C311.921 307.798 320.328 302.243 325.638 294.376C329.277 288.918 331.391 282.379 331.391 275.25C331.391 256.223 316.002 240.833 296.974 240.833ZM312.019 274.168L307.938 278.249C307.25 278.938 306.857 280.265 307.102 281.248L308.282 286.313C309.217 290.295 307.102 291.868 303.562 289.754L298.646 286.853C297.761 286.313 296.286 286.313 295.401 286.853L290.484 289.754C286.944 291.819 284.83 290.295 285.764 286.313L286.944 281.248C287.141 280.314 286.797 278.938 286.108 278.249L281.929 274.168C279.52 271.759 280.307 269.35 283.65 268.809L288.911 267.924C289.796 267.777 290.828 266.99 291.222 266.203L294.122 260.402C295.696 257.255 298.252 257.255 299.826 260.402L302.727 266.203C303.12 266.99 304.152 267.777 305.087 267.924L310.347 268.809C313.642 269.35 314.428 271.759 312.019 274.168Z" fill="url(#paint4_linear_16_247)"/>
</g>
<defs>
<filter id="filter0_d_16_247" x="0" y="0" width="673.948" height="793" filterUnits="userSpaceOnUse" color-interpolation-filters="sRGB">
<feFlood flood-opacity="0" result="BackgroundImageFix"/>
<feColorMatrix in="SourceAlpha" type="matrix" values="0 0 0 0 0 0 0 0 0 0 0 0 0 0 0 0 0 0 127 0" result="hardAlpha"/>
<feOffset dx="40" dy="4"/>
<feGaussianBlur stdDeviation="87.5"/>
<feComposite in2="hardAlpha" operator="out"/>
<feColorMatrix type="matrix" values="0 0 0 0 0.458824 0 0 0 0 0.47451 0 0 0 0 1 0 0 0 0.3 0"/>
<feBlend mode="normal" in2="BackgroundImageFix" result="effect1_dropShadow_16_247"/>
<feBlend mode="normal" in="SourceGraphic" in2="effect1_dropShadow_16_247" result="shape"/>
</filter>
<linearGradient id="paint0_linear_16_247" x1="135" y1="392.5" x2="458.948" y2="392.5" gradientUnits="userSpaceOnUse">
<stop stop-color="#B224EF"/>
<stop offset="1" stop-color="#7579FF"/>
</linearGradient>
<linearGradient id="paint1_linear_16_247" x1="256.974" y1="290.417" x2="336.974" y2="290.417" gradientUnits="userSpaceOnUse">
<stop stop-color="#B224EF"/>
<stop offset="1" stop-color="#7579FF"/>
</linearGradient>
<linearGradient id="paint2_linear_16_247" x1="305.126" y1="319.657" x2="346.006" y2="319.657" gradientUnits="userSpaceOnUse">
<stop stop-color="#B224EF"/>
<stop offset="1" stop-color="#7579FF"/>
</linearGradient>
<linearGradient id="paint3_linear_16_247" x1="247.696" y1="319.657" x2="288.577" y2="319.657" gradientUnits="userSpaceOnUse">
<stop stop-color="#B224EF"/>
<stop offset="1" stop-color="#7579FF"/>
</linearGradient>
<linearGradient id="paint4_linear_16_247" x1="262.557" y1="275.25" x2="331.391" y2="275.25" gradientUnits="userSpaceOnUse">
<stop stop-color="#B224EF"/>
<stop offset="1" stop-color="#7579FF"/>
</linearGradient>
</defs>
</svg>
