<svg width="21" height="21" viewBox="0 0 21 21" fill="none" xmlns="http://www.w3.org/2000/svg">
<path d="M19.7728 4.33155C19.072 4.64284 18.3192 4.85222 17.5291 4.94676C18.336 4.46341 18.9547 3.69829 19.2461 2.78594C18.4919 3.2334 17.6558 3.55844 16.7652 3.73418C16.0528 2.97481 15.0379 2.50028 13.9145 2.50028C11.4316 2.46706 9.52256 4.89282 10.1101 7.29583C6.86404 7.13321 3.98629 5.57796 2.05905 3.21412C1.00724 4.92933 1.60441 7.38217 3.26814 8.42925C2.62812 8.40875 2.02542 8.233 1.499 7.94078C1.4746 9.84895 2.82826 11.46 4.63226 11.8195C4.07796 11.9741 3.43937 11.9983 2.86825 11.8867C3.36555 13.4383 4.80801 14.5682 6.51706 14.5996C4.97186 15.8343 2.80858 16.478 0.733887 16.2172C9.07653 21.3515 18.2991 14.6248 17.823 6.35313C18.5864 5.8019 19.2492 5.1143 19.7728 4.33155Z" fill="url(#paint0_linear_16_5121)"/>
<defs>
<linearGradient id="paint0_linear_16_5121" x1="0.733887" y1="10.2535" x2="19.7728" y2="10.2535" gradientUnits="userSpaceOnUse">
<stop stop-color="#B224EF"/>
<stop offset="1" stop-color="#7579FF"/>
</linearGradient>
</defs>
</svg>
